<svg version="1.1" xmlns="http://www.w3.org/2000/svg" fill-rule="evenodd" clip-rule="evenodd" height="1024" width="1024" viewBox="0 0 1024 1024"><path d="M514.785951 893.979738c-65.014736 0-130.028449 0-195.051371-0.010233-3.592828 0-7.223518 0.12075-10.770298-0.323365-1.538029-0.193405-3.3984-1.397836-4.269233-2.705622-4.53734-6.817266-8.622378-13.928221-13.20679-20.708647-7.084349-10.491958-14.420431-20.826328-21.708418-31.181163-10.936073-15.539928-21.994943-31.007201-32.904411-46.576805-9.455349-13.500479-18.726503-27.125801-28.155246-40.636513-11.362792-16.281825-22.828938-32.498158-34.21015-48.753377a1717.179432 1717.179432 0 0 1-13.31833-19.325138c-10.344602-15.182794-20.578688-30.42494-31.024597-45.530986-3.121084-4.50971-6.621814-8.779967-10.260692-12.892634-14.605649-16.445554-22.838148-36.820604-33.970695-55.400775-3.806699-6.351662-5.203512-14.242376-7.335059-21.521152-5.434779-18.568914-11.030218-81.351819 0.889253-113.562429 6.650467-25.570375 21.116947-46.639227 37.582967-66.745147 11.715833-14.299681 26.060539-25.580608 41.443901-35.092239 13.141298-8.121981 27.634384-13.96506 42.48972-19.290345 29.395494-10.503215 58.939367-10.215666 88.991823-6.81522 11.022031 1.240247 14.846126 6.326079 12.975523 17.334807-1.343601 7.900947-3.51915 15.697517-5.872755 23.375384-1.89721 6.186909-6.972808 7.733125-13.06762 7.788383-14.586207 0.130983-29.477358-1.119497-43.684941 1.390674-18.36323 3.26844-36.182061 9.29776-52.881395 18.56789-11.039427 6.139837-21.180392 13.214976-30.274514 21.661346-12.622482 11.724019-21.875217 25.625634-29.080315 41.730427-12.576433 28.164456-9.845229 56.068993-3.16611 84.416621 2.02717 8.613168 4.796236 17.206894 8.482186 25.245988 9.502421 20.74344 21.033036 40.479947 41.584094 52.047399 6.260587 3.527336 15.114233 3.558036 22.745026 3.370771 31.728632-0.74906 63.448054-2.213411 95.176687-3.381004 13.326517-0.490164 26.663266-0.822738 39.990806-1.370207 17.476023-0.712221 29.377074-9.962909 36.498262-25.319665 5.389754-11.642155 9.93835-23.689538 14.56881-35.674501 2.176572-5.610788 5.798053-8.927323 11.806907-8.778943 11.428284 0.286526 22.884197 0.490164 34.258245 1.517563 9.824763 0.899486 12.380982 6.587022 8.260128 15.623839-2.100848 4.593622-3.306302 9.585309-5.324262 14.226002-2.158153 4.974291-4.751211 9.769504-7.232729 14.603603-0.667196 1.297552-1.769296 2.38021-2.464121 3.677763-5.240351 9.883091-1.010003 16.680914 10.114359 16.419971 37.044708-0.889253 74.089415-1.731434 111.135146-2.611477 30.052456-0.712221 60.114123-1.183965 90.149183-2.41705 6.030343-0.25071 12.06785-3.120061 17.874089-5.363147 6.296403-2.423189 12.289907-5.619998 18.476817-8.324596 3.843538-1.676176 6.918573-0.843204 9.001001 3.158946 4.400217 8.419763 11.995195 10.037611 20.560268 9.204639 5.390777-0.529049 6.399757-2.677992 3.288907-6.944156-4.871961-6.697539-10.363022-12.096503-19.6352-12.243858-2.452865-0.036839-5.094018-2.899026-7.240914-4.91187-3.325745-3.119037-6.198166-6.740518-9.457396-9.943467-6.333242-6.204305-13.473873-11.725042-19.077498-18.524912-13.196557-16.039301-22.939455-33.839713-30.514991-53.555753-10.253528-26.663266-10.752902-53.510728-6.909363-80.608899 2.527566-17.866926 9.54847-34.748409 18.448164-50.892087 8.28878-15.050788 18.235316-28.580942 30.885428-39.878243 8.909927-7.955182 19.48682-14.001899 28.802999-21.531385 13.538341-10.939143 55.521524-21.913079 60.281945-21.932522 16.918321-0.092098 34.089399-1.314948 50.667983 1.204431 17.578354 2.666736 34.415834 9.213849 50.316989 18.096147 15.151072 8.464789 29.005614 18.365276 40.397059 31.266098 7.630794 8.651031 13.548574 18.791995 20.716834 27.875884 9.594519 12.170181 12.670577 27.108405 17.85567 41.074487 2.971681 8.002254 4.622274 16.864086 4.89959 25.402553 0.471744 14.975063 1.083681 30.274514-1.37123 44.945655-2.945075 17.607006-9.242502 34.489512-18.180058 50.372248-8.075933 14.354939-17.188474 27.802206-29.366841 38.711673-8.447393 7.547907-18.180058 13.669324-27.487028 20.199041-3.880377 2.720971-10.114358 4.121877-8.677637 10.150175 1.418302 5.898337 7.631818 5.406127 12.32777 5.306865 19.466354-0.417509 38.915311-1.601474 58.382688-1.667989 8.084119-0.026606 16.207124 1.892093 24.244171 3.269464 3.52836 0.611937 4.205788 3.955078 1.398859 5.351891-10.705829 5.336542-15.456017 15.893992-22.190394 24.543999-11.68718 14.991436-22.467711 30.67258-33.608446 46.091758-4.835122 6.66684-9.576099 13.410428-14.392802 20.077268-16.46602 22.765493-33.062 45.436842-49.38885 68.302618-14.7264 20.634969-29.071106 41.538045-43.750433 62.206784-9.049097 12.752442-18.393929 25.294083-27.627221 37.908378-9.224082 12.621459-19.718087 24.539906-27.199479 38.107923-4.047176 7.335059-8.55791 7.084349-14.420431 7.084349-66.083068 0.042979-132.159996 0.035816-198.239993 0.035816z m-6.537903-50.391691c54.000891 0 108.003829-0.147356 162.006767 0.14838 9.074679 0.046049 16.057721-2.638083 21.494547-9.742899 13.863752-18.124799 27.755134-36.239366 41.600467-54.380538 10.382465-13.604856 20.643156-27.2926 31.071669-40.853453 10.686387-13.908778 21.496593-27.717272 32.275078-41.551348 13.114692-16.847713 26.25599-33.658587 39.389102-50.475602 1.295506-1.675152 2.778276-3.232624 3.851724-5.038759 3.047406-5.085832 1.824555-8.749268-4.047176-9.878998-5.120624-0.983397-10.511401-0.926092-15.781428-0.862648-33.869389 0.398066-67.735707 0.935302-101.604072 1.396813-6.993275 0.094144-13.994736-0.156566-20.968568 0.113587-9.538237 0.350994-12.371772 3.083222-15.631002 11.899005-1.298576 3.527336-3.798513 7.184633-6.752797 9.428743-10.742668 8.121981-22.217001 15.289218-32.858362 23.523763-37.349653 28.893051-69.588915 63.039755-100.354616 98.631368-5.242398 6.057973-9.380648 13.08604-14.835893 18.930141-6.658653 7.141654-12.910031 6.258541-19.346627-1.066285-4.870938-5.526877-9.974166-10.946306-15.558348-15.760962-22.75526-19.673062-47.242977-36.851303-74.173326-50.419319-3.186576-1.600451-6.15928-3.751441-8.936533-6.010901-7.872295-6.40999-7.077186-11.370978 1.546216-16.549931 10.122545-6.076392 19.995403-12.611226 29.617551-19.438725 7.482415-5.296633 13.928221-4.871961 20.104897 1.962702a8568.080378 8568.080378 0 0 0 47.038316 51.595098c4.981455 5.426593 10.260691 5.520737 15.21554-0.093121 4.03899-4.583388 7.391341-9.770528 11.076266-14.668071 10.770298-14.355963 21.37482-28.850072 32.423457-42.993187 8.206916-10.491958 17.336854-20.271696 25.357527-30.902823 2.369977-3.139503 3.770883-8.40953 2.880607-12.040221-0.481977-1.962701-6.668886-2.65855-10.354835-3.66753-1.37123-0.370437-2.945075 0.010233-4.426823 0.053212-36.58115 1.270946-73.15309 2.667759-109.745496 3.761674-23.689538 0.705058-47.426149 0.381693-71.078849 1.695618-11.225669 0.621147-22.606881 3.018753-33.313733 6.462179-7.621585 2.447748-14.252609 8.013511-21.337981 12.159948-19.818371 11.587919-41.462321 17.930371-64.023152 20.736276-11.260461 1.390673-22.847357 0.234337-34.237779 0.88209-3.361561 0.193405-8.270361 1.832741-9.410324 4.249791-1.166569 2.480494 0.685615 7.178493 2.492774 10.113335 5.203512 8.428973 11.336186 16.282848 16.594957 24.681122 10.410094 16.623609 20.393469 33.524534 30.711465 50.224892 11.993149 19.37221 24.207331 38.600133 36.192294 57.965179 6.251378 10.103102 13.595646 16.271592 27.006074 16.078187 52.93563-0.741897 105.884562-0.297782 158.830425-0.297782z"></path><path d="M508.933663 129.49326c13.771655 0 51.186799 7.650237 53.3163 8.057513 15.476483 2.935865 29.470195 9.862625 42.276872 18.161638 14.437827 9.363252 27.79402 20.662599 40.500413 32.340569 7.500834 6.90834 13.08604 15.993253 19.067264 24.431436 5.3918 7.622608 3.299139 13.494339-5.40715 16.032138-23.635303 6.89913-43.546795 20.2543-61.762669 36.202526-17.151635 15.021112-30.469965 33.044604-41.323151 53.261041-20.311605 37.877679-26.330692 77.951373-19.21769 119.784131 2.556219 15.058974 9.038864 29.458939 13.799284 44.140313 0.712221 2.203178 2.009773 4.212952 2.675946 6.425339 2.240017 7.408737-0.166799 12.112875-7.686053 13.845333-5.548366 1.270946-11.280928 2.020006-16.968464 2.297323-25.431206 1.234107-50.389644 0.954745-75.162863-7.91732-14.420431-5.15951-28.64541-10.531867-41.50837-18.338671-20.311605-12.317537-38.786375-27.366278-52.39123-47.25935-8.196683-12.002358-17.245779-23.968901-22.533203-37.295418-7.269567-18.3356-14.909571-37.098943-15.123442-57.410547-0.166799-16.271592-1.232061-32.830733 1.232061-48.76975 2.990101-19.299555 9.224082-37.95238 18.5771-55.59418 8.316409-15.680121 18.096147-30.117948 30.025851-43.000349 7.427156-8.020674 15.70775-15.493879 24.589024-21.866007 10.936073-7.835456 22.577205-14.856359 34.515095-21.079085 7.205099-3.76065 15.660678-5.02955 23.320125-8.010441 2.797719-1.085728 41.213657-8.438183 55.18895-8.438182z"></path></svg>